<svg xmlns="http://www.w3.org/2000/svg" width="512" height="512" viewBox="0 0 512 512" role="img" aria-label="Colorful compass icon">
  <defs>
    <!-- colorful ring -->
    <linearGradient id="ringGrad" x1="64" y1="64" x2="448" y2="448" gradientUnits="userSpaceOnUse">
      <stop offset="0" stop-color="#ff4d4d"/>
      <stop offset="0.25" stop-color="#ffcc00"/>
      <stop offset="0.5" stop-color="#38d9a9"/>
      <stop offset="0.75" stop-color="#4dabf7"/>
      <stop offset="1" stop-color="#b197fc"/>
    </linearGradient>

    <!-- glass -->
    <radialGradient id="glassGrad" cx="35%" cy="30%" r="70%">
      <stop offset="0" stop-color="#ffffff" stop-opacity="0.95"/>
      <stop offset="0.35" stop-color="#dbeafe" stop-opacity="0.55"/>
      <stop offset="1" stop-color="#93c5fd" stop-opacity="0.15"/>
    </radialGradient>

    <!-- metal -->
    <linearGradient id="metalGrad" x1="0" y1="0" x2="0" y2="1">
      <stop offset="0" stop-color="#f8fafc"/>
      <stop offset="0.45" stop-color="#cbd5e1"/>
      <stop offset="1" stop-color="#94a3b8"/>
    </linearGradient>

    <!-- needle (red) -->
    <linearGradient id="needleRed" x1="0" y1="0" x2="1" y2="1">
      <stop offset="0" stop-color="#ff6b6b"/>
      <stop offset="1" stop-color="#c92a2a"/>
    </linearGradient>

    <!-- needle (blue) -->
    <linearGradient id="needleBlue" x1="1" y1="0" x2="0" y2="1">
      <stop offset="0" stop-color="#74c0fc"/>
      <stop offset="1" stop-color="#1c7ed6"/>
    </linearGradient>

    <!-- soft shadow -->
    <filter id="shadow" x="-30%" y="-30%" width="160%" height="160%">
      <feGaussianBlur in="SourceAlpha" stdDeviation="10" result="b"/>
      <feOffset in="b" dx="0" dy="10" result="o"/>
      <feColorMatrix in="o" type="matrix"
        values="0 0 0 0 0
                0 0 0 0 0
                0 0 0 0 0
                0 0 0 0.25 0" result="s"/>
      <feMerge>
        <feMergeNode in="s"/>
        <feMergeNode in="SourceGraphic"/>
      </feMerge>
    </filter>

    <!-- highlight clip -->
    <clipPath id="circleClip">
      <circle cx="256" cy="256" r="150"/>
    </clipPath>
  </defs>

  <!-- Transparent background by default (no rect) -->

  <!-- outer ring -->
  <g filter="url(#shadow)">
    <circle cx="256" cy="256" r="196" fill="url(#ringGrad)"/>
    <circle cx="256" cy="256" r="176" fill="url(#metalGrad)" opacity="0.95"/>
    <circle cx="256" cy="256" r="164" fill="#0b1220" opacity="0.10"/>
  </g>

  <!-- tick marks -->
  <g stroke="#0f172a" stroke-opacity="0.45" stroke-linecap="round">
    <!-- major ticks -->
    <g stroke-width="8">
      <line x1="256" y1="72"  x2="256" y2="104"/>
      <line x1="256" y1="408" x2="256" y2="440"/>
      <line x1="72"  y1="256" x2="104" y2="256"/>
      <line x1="408" y1="256" x2="440" y2="256"/>
    </g>
    <!-- minor ticks (diagonals) -->
    <g stroke-width="6">
      <line x1="140" y1="140" x2="162" y2="162"/>
      <line x1="372" y1="372" x2="350" y2="350"/>
      <line x1="372" y1="140" x2="350" y2="162"/>
      <line x1="140" y1="372" x2="162" y2="350"/>
    </g>
  </g>

  <!-- inner bezel -->
  <circle cx="256" cy="256" r="152" fill="#0f172a" opacity="0.08"/>
  <circle cx="256" cy="256" r="150" fill="url(#glassGrad)"/>

  <!-- N/E/S/W letters -->
  <g font-family="system-ui, -apple-system, Segoe UI, Roboto, Arial" font-weight="800" fill="#0f172a" opacity="0.75" text-anchor="middle">
    <text x="256" y="132" font-size="34">N</text>
    <text x="380" y="268" font-size="30">E</text>
    <text x="256" y="394" font-size="30">S</text>
    <text x="132" y="268" font-size="30">W</text>
  </g>

  <!-- needle -->
  <g transform="translate(256 256)">
    <!-- blue half -->
    <path d="M-16 8 L-92 34 L0 -128 L92 34 L16 8 Z" fill="url(#needleBlue)" opacity="0.95"/>
    <!-- red half -->
    <path d="M16 -8 L92 -34 L0 128 L-92 -34 L-16 -8 Z" fill="url(#needleRed)" opacity="0.95"/>
    <!-- inner cut for style -->
    <path d="M0 -112 L66 26 L0 58 L-66 26 Z" fill="#ffffff" opacity="0.18"/>
  </g>

  <!-- center cap -->
  <g>
    <circle cx="256" cy="256" r="26" fill="#0f172a" opacity="0.18"/>
    <circle cx="256" cy="256" r="22" fill="url(#metalGrad)"/>
    <circle cx="256" cy="256" r="10" fill="#0f172a" opacity="0.20"/>
    <circle cx="256" cy="256" r="7" fill="#ffffff" opacity="0.55"/>
  </g>

  <!-- glass highlight -->
  <g clip-path="url(#circleClip)">
    <path d="M96 210 C160 110, 260 92, 360 120 C290 160, 220 210, 170 300 C130 275, 105 245, 96 210 Z"
          fill="#ffffff" opacity="0.25"/>
  </g>
</svg>
