<svg xmlns="http://www.w3.org/2000/svg" width="512" height="512" viewBox="0 0 512 512" role="img" aria-label="Steampunk cyberpunk compass (transparent background)">
  <defs>
    <!-- Neon + brass gradients -->
    <linearGradient id="brassGrad" x1="0" y1="0" x2="0" y2="1">
      <stop offset="0" stop-color="#f6d77a"/>
      <stop offset="0.35" stop-color="#caa24b"/>
      <stop offset="0.7" stop-color="#8a6a22"/>
      <stop offset="1" stop-color="#f2cf6f"/>
    </linearGradient>

    <linearGradient id="steelGrad" x1="0" y1="0" x2="1" y2="1">
      <stop offset="0" stop-color="#f8fafc"/>
      <stop offset="0.35" stop-color="#cbd5e1"/>
      <stop offset="0.75" stop-color="#64748b"/>
      <stop offset="1" stop-color="#0f172a"/>
    </linearGradient>

    <linearGradient id="neonRing" x1="64" y1="448" x2="448" y2="64" gradientUnits="userSpaceOnUse">
      <stop offset="0" stop-color="#00f5ff"/>
      <stop offset="0.35" stop-color="#7c3aed"/>
      <stop offset="0.7" stop-color="#ff2bd6"/>
      <stop offset="1" stop-color="#ffd000"/>
    </linearGradient>

    <radialGradient id="glass" cx="35%" cy="30%" r="70%">
      <stop offset="0" stop-color="#ffffff" stop-opacity="0.85"/>
      <stop offset="0.35" stop-color="#b3e5ff" stop-opacity="0.35"/>
      <stop offset="1" stop-color="#00f5ff" stop-opacity="0.10"/>
    </radialGradient>

    <linearGradient id="needleHot" x1="0" y1="0" x2="1" y2="1">
      <stop offset="0" stop-color="#ff4d4d"/>
      <stop offset="1" stop-color="#ff00d4"/>
    </linearGradient>

    <linearGradient id="needleCold" x1="1" y1="0" x2="0" y2="1">
      <stop offset="0" stop-color="#00f5ff"/>
      <stop offset="1" stop-color="#2bff88"/>
    </linearGradient>

    <!-- Shadows / glow -->
    <filter id="softShadow" x="-30%" y="-30%" width="160%" height="160%">
      <feGaussianBlur in="SourceAlpha" stdDeviation="10" result="b"/>
      <feOffset in="b" dx="0" dy="10" result="o"/>
      <feColorMatrix in="o" type="matrix"
        values="0 0 0 0 0
                0 0 0 0 0
                0 0 0 0 0
                0 0 0 0.28 0" result="s"/>
      <feMerge>
        <feMergeNode in="s"/>
        <feMergeNode in="SourceGraphic"/>
      </feMerge>
    </filter>

    <filter id="neonGlow" x="-60%" y="-60%" width="220%" height="220%">
      <feGaussianBlur stdDeviation="6" result="g"/>
      <feColorMatrix in="g" type="matrix"
        values="1 0 0 0 0
                0 1 0 0 0
                0 0 1 0 0
                0 0 0 0.9 0" result="gc"/>
      <feMerge>
        <feMergeNode in="gc"/>
        <feMergeNode in="SourceGraphic"/>
      </feMerge>
    </filter>

    <!-- Clip for glass highlight -->
    <clipPath id="faceClip">
      <circle cx="256" cy="256" r="148"/>
    </clipPath>

    <!-- A tiny “gear tooth” shape for steampunk vibe -->
    <path id="tooth" d="M0,-186 h18 l6,18 l-6,18 h-18 l-6,-18 z" />
  </defs>

  <!-- TRANSPARENT background (no rect) -->

  <!-- Outer neon ring + brass bezel -->
  <g filter="url(#softShadow)">
    <circle cx="256" cy="256" r="204" fill="url(#neonRing)" opacity="0.95" filter="url(#neonGlow)"/>
    <circle cx="256" cy="256" r="194" fill="url(#brassGrad)"/>
    <circle cx="256" cy="256" r="178" fill="#0b1220" opacity="0.10"/>
  </g>

  <!-- Gear-like outer teeth (subtle) -->
  <g transform="translate(256 256)" fill="url(#brassGrad)" opacity="0.55">
    <!-- 12 teeth -->
    <g>
      <use href="#tooth"/>
      <use href="#tooth" transform="rotate(30)"/>
      <use href="#tooth" transform="rotate(60)"/>
      <use href="#tooth" transform="rotate(90)"/>
      <use href="#tooth" transform="rotate(120)"/>
      <use href="#tooth" transform="rotate(150)"/>
      <use href="#tooth" transform="rotate(180)"/>
      <use href="#tooth" transform="rotate(210)"/>
      <use href="#tooth" transform="rotate(240)"/>
      <use href="#tooth" transform="rotate(270)"/>
      <use href="#tooth" transform="rotate(300)"/>
      <use href="#tooth" transform="rotate(330)"/>
    </g>
  </g>

  <!-- Inner steel ring -->
  <circle cx="256" cy="256" r="170" fill="url(#steelGrad)" opacity="0.90"/>
  <circle cx="256" cy="256" r="162" fill="#0f172a" opacity="0.12"/>

  <!-- Face -->
  <circle cx="256" cy="256" r="150" fill="url(#glass)"/>
  <circle cx="256" cy="256" r="150" fill="none" stroke="#00f5ff" stroke-opacity="0.35" stroke-width="2" filter="url(#neonGlow)"/>

  <!-- Tech tick marks -->
  <g transform="translate(256 256)" stroke-linecap="round">
    <!-- minor ticks -->
    <g stroke="#0f172a" stroke-opacity="0.45" stroke-width="4">
      <!-- 24 ticks -->
      <g>
        <line x1="0" y1="-142" x2="0" y2="-132"/>
        <line x1="0" y1="-142" x2="0" y2="-132" transform="rotate(15)"/>
        <line x1="0" y1="-142" x2="0" y2="-132" transform="rotate(30)"/>
        <line x1="0" y1="-142" x2="0" y2="-132" transform="rotate(45)"/>
        <line x1="0" y1="-142" x2="0" y2="-132" transform="rotate(60)"/>
        <line x1="0" y1="-142" x2="0" y2="-132" transform="rotate(75)"/>
        <line x1="0" y1="-142" x2="0" y2="-132" transform="rotate(90)"/>
        <line x1="0" y1="-142" x2="0" y2="-132" transform="rotate(105)"/>
        <line x1="0" y1="-142" x2="0" y2="-132" transform="rotate(120)"/>
        <line x1="0" y1="-142" x2="0" y2="-132" transform="rotate(135)"/>
        <line x1="0" y1="-142" x2="0" y2="-132" transform="rotate(150)"/>
        <line x1="0" y1="-142" x2="0" y2="-132" transform="rotate(165)"/>
        <line x1="0" y1="-142" x2="0" y2="-132" transform="rotate(180)"/>
        <line x1="0" y1="-142" x2="0" y2="-132" transform="rotate(195)"/>
        <line x1="0" y1="-142" x2="0" y2="-132" transform="rotate(210)"/>
        <line x1="0" y1="-142" x2="0" y2="-132" transform="rotate(225)"/>
        <line x1="0" y1="-142" x2="0" y2="-132" transform="rotate(240)"/>
        <line x1="0" y1="-142" x2="0" y2="-132" transform="rotate(255)"/>
        <line x1="0" y1="-142" x2="0" y2="-132" transform="rotate(270)"/>
        <line x1="0" y1="-142" x2="0" y2="-132" transform="rotate(285)"/>
        <line x1="0" y1="-142" x2="0" y2="-132" transform="rotate(300)"/>
        <line x1="0" y1="-142" x2="0" y2="-132" transform="rotate(315)"/>
        <line x1="0" y1="-142" x2="0" y2="-132" transform="rotate(330)"/>
        <line x1="0" y1="-142" x2="0" y2="-132" transform="rotate(345)"/>
      </g>
    </g>

    <!-- major ticks (neon) -->
    <g stroke="#00f5ff" stroke-opacity="0.85" stroke-width="7" filter="url(#neonGlow)">
      <line x1="0" y1="-145" x2="0" y2="-120"/>
      <line x1="0" y1="-145" x2="0" y2="-120" transform="rotate(90)"/>
      <line x1="0" y1="-145" x2="0" y2="-120" transform="rotate(180)"/>
      <line x1="0" y1="-145" x2="0" y2="-120" transform="rotate(270)"/>
    </g>
  </g>

  <!-- Cyber “HUD” arcs -->
  <g fill="none" stroke-linecap="round">
    <circle cx="256" cy="256" r="118" stroke="#ff00d4" stroke-opacity="0.35" stroke-width="6" stroke-dasharray="26 18" filter="url(#neonGlow)"/>
    <circle cx="256" cy="256" r="104" stroke="#2bff88" stroke-opacity="0.28" stroke-width="4" stroke-dasharray="18 14" filter="url(#neonGlow)"/>
  </g>

  <!-- Cardinal letters (engraved + neon edge) -->
  <g font-family="system-ui, -apple-system, Segoe UI, Roboto, Arial" font-weight="900" text-anchor="middle">
    <g fill="#0f172a" opacity="0.65">
      <text x="256" y="148" font-size="40">N</text>
      <text x="388" y="272" font-size="36">E</text>
      <text x="256" y="404" font-size="36">S</text>
      <text x="124" y="272" font-size="36">W</text>
    </g>
    <g fill="none" stroke="#00f5ff" stroke-opacity="0.55" stroke-width="2" filter="url(#neonGlow)">
      <text x="256" y="148" font-size="40">N</text>
      <text x="388" y="272" font-size="36">E</text>
      <text x="256" y="404" font-size="36">S</text>
      <text x="124" y="272" font-size="36">W</text>
    </g>
  </g>

  <!-- Compass rose (steampunk star) -->
  <g transform="translate(256 256)" opacity="0.85">
    <g fill="#0f172a" opacity="0.35">
      <path d="M0,-92 L10,-10 L92,0 L10,10 L0,92 L-10,10 L-92,0 L-10,-10 Z"/>
    </g>
    <g fill="#00f5ff" opacity="0.22" filter="url(#neonGlow)">
      <path d="M0,-92 L10,-10 L92,0 L10,10 L0,92 L-10,10 L-92,0 L-10,-10 Z"/>
    </g>
  </g>

  <!-- Needle -->
  <g transform="translate(256 256)">
    <!-- cold -->
    <path d="M-16 8 L-110 34 L0 -150 L110 34 L16 8 Z" fill="url(#needleCold)" opacity="0.95" filter="url(#neonGlow)"/>
    <!-- hot -->
    <path d="M16 -8 L110 -34 L0 150 L-110 -34 L-16 -8 Z" fill="url(#needleHot)" opacity="0.95" filter="url(#neonGlow)"/>
    <!-- bevel -->
    <path d="M0 -128 L76 26 L0 66 L-76 26 Z" fill="#ffffff" opacity="0.14"/>
  </g>

  <!-- Center cap (brass + neon core) -->
  <g>
    <circle cx="256" cy="256" r="30" fill="#0b1220" opacity="0.22"/>
    <circle cx="256" cy="256" r="26" fill="url(#brassGrad)"/>
    <circle cx="256" cy="256" r="14" fill="#0f172a" opacity="0.25"/>
    <circle cx="256" cy="256" r="10" fill="#00f5ff" opacity="0.65" filter="url(#neonGlow)"/>
    <circle cx="252" cy="252" r="6" fill="#ffffff" opacity="0.35"/>
  </g>

  <!-- Glass highlight -->
  <g clip-path="url(#faceClip)">
    <path d="M92 220 C160 110, 270 96, 380 130 C310 164, 230 220, 176 314 C128 290, 104 254, 92 220 Z"
          fill="#ffffff" opacity="0.22"/>
    <path d="M320 140 C372 168, 396 214, 392 252 C360 228, 332 200, 320 140 Z"
          fill="#00f5ff" opacity="0.10"/>
  </g>
</svg>
